<svg width="116" height="24" viewBox="0 0 116 24" fill="none" xmlns="http://www.w3.org/2000/svg">
<path d="M18.0958 6.5138V19.9876H14.4924V9.79606L3.96284 18.311C3.49636 18.6896 3.60115 19.1696 3.66537 19.3589C3.7296 19.5482 3.9527 19.9876 4.55439 19.9876H14.4924V23.591H4.55439C2.60059 23.591 0.917205 22.4011 0.268191 20.5589C-0.384203 18.7166 0.176924 16.7358 1.69805 15.5054L11.724 7.39944H1.90763V3.79606H15.3814C16.8789 3.79606 18.0992 5.01634 18.0992 6.5138H18.0958ZM39.5335 19.6868C40.0135 17.3577 38.8676 15.1606 36.6806 14.2242L26.489 9.85352C25.6 9.47155 25.6913 8.66366 25.742 8.42366C25.7927 8.18366 26.0259 7.40282 26.9927 7.40282H37.8671V3.79944H26.9927C24.613 3.79944 22.6896 5.36789 22.2096 7.70028C21.7296 10.0327 22.8789 12.2299 25.0659 13.1696L35.2575 17.5403C36.1431 17.9189 36.0518 18.7268 36.0011 18.9634C35.9538 19.2 35.7172 19.9775 34.7572 19.9775L22.4699 19.9673V23.5707L34.7572 23.5808H34.7606C37.1369 23.5808 39.0569 22.0158 39.5369 19.6868H39.5335ZM114.978 13.7746C114.978 6.22648 112.5 3.67775 105.158 3.67775C97.8164 3.67775 95.2609 6.22648 95.2609 13.7746C95.2609 21.3228 97.6643 23.7127 105.158 23.7127C112.652 23.7127 114.978 21.2992 114.978 13.7746ZM111.097 13.7746C111.097 19.0141 110.266 19.8693 105.162 19.8693C100.057 19.8693 99.1854 19.0141 99.1854 13.7746C99.1854 8.53521 99.9662 7.52113 105.162 7.52113C110.357 7.52113 111.097 8.33916 111.097 13.7746ZM86.1611 23.7093C88.1792 23.7093 90.9814 23.6417 92.871 23.3104L92.969 23.2935V19.4468L92.8271 19.4704C90.5927 19.8659 87.2564 19.8659 86.1578 19.8659H86.1172C81.0907 19.8659 80.1409 18.8992 80.1409 13.7713C80.1409 8.33578 80.9217 7.51775 86.1172 7.51775H86.1578C87.2564 7.51775 90.5927 7.51775 92.8271 7.91324L92.969 7.9369V4.09014L92.871 4.07324C90.9814 3.74535 88.1792 3.67437 86.1611 3.67437H86.1206C78.7212 3.67437 76.2231 6.2231 76.2231 13.7713C76.2231 21.3194 78.8124 23.7093 86.1206 23.7093H86.1611ZM50.7324 7.40282V3.79944H46.7166V0H43.1133V20.1499C43.1133 22.0394 44.6445 23.5707 46.5341 23.5707H50.7358V19.9673H47.4806C47.0614 19.9673 46.72 19.6259 46.72 19.2068V7.4062H50.7358L50.7324 7.40282ZM64.1217 3.67775H63.9527C56.5533 3.67775 54.0552 6.22648 54.0552 13.7746C54.0552 21.3228 56.6445 23.7127 63.9527 23.7127H63.9696C66.7144 23.7127 68.5769 23.6079 71.2879 23.3172L71.3961 23.307V19.4637L71.2643 19.4772C68.462 19.7983 66.3966 19.8693 64.0271 19.8727H63.9561C59.6124 19.8727 58.3144 19.1459 58.0406 15.6406H73.3296L73.3364 15.529C73.3769 14.9307 73.3769 14.3324 73.3769 13.7003C73.3769 6.31099 71.0344 3.75211 64.1217 3.68451V3.67775ZM58.0169 12.0304C58.2265 8.15662 59.3758 7.52113 63.9527 7.52113H64.1048C68.4451 7.54817 69.2868 8.27493 69.449 12.0304H58.0169Z" fill="#EF6A00"/>
</svg>
