<svg width="155" height="40" viewBox="0 0 155 40" fill="none" xmlns="http://www.w3.org/2000/svg">
<path d="M20.9947 11.9777H8.13916V0H0V30.7529H8.13916V18.3131H20.9947V30.7529H29.1339V0H20.9947V11.9777Z" fill="black"/>
<path d="M48.8516 18.4979C48.8516 22.9334 47.0035 25.0643 43.9032 25.0643C41.0821 25.0643 39.8373 23.401 39.8373 20.3008V7.63001H31.8765V21.6887C31.8765 27.746 34.6053 31.4921 40.6635 31.4921C44.7293 31.4921 47.3685 29.5516 48.8488 26.5438V30.752H56.7986V7.63001H48.8516V18.4979Z" fill="black"/>
<path d="M74.0277 16.4169L69.2642 15.9549C67.0908 15.7239 66.5364 14.846 66.5364 13.8739C66.5364 12.5802 67.5528 11.6081 70.2326 11.6081C72.7766 11.6081 74.0213 12.6717 74.256 14.4727H81.4711C81.0091 9.06139 76.5735 6.88798 70.1873 6.88798C63.9906 6.88798 59.2741 9.10574 59.2741 14.6113C59.2741 18.6347 61.6767 21.0391 66.164 21.5473L71.0615 22.1018C73.7413 22.4252 74.1599 23.3955 74.1599 24.5524C74.1599 25.8941 73.1434 26.7258 70.556 26.7258C67.599 26.7258 66.0281 25.2002 65.8433 23.3068H58.6282C58.813 27.5575 61.9548 31.4921 70.4211 31.4921C79.0223 31.4921 81.7502 28.0241 81.7502 23.6302C81.7483 19.191 79.4843 16.9714 74.0277 16.4169Z" fill="black"/>
<path d="M100.816 6.88983C96.8863 6.88983 94.25 8.32398 92.6772 10.7709V7.62909H84.7238V40H92.6772V27.515C94.2481 30.0099 96.8863 31.4884 100.816 31.4884C108.401 31.4884 111.406 25.6613 111.406 19.2335C111.411 12.5784 108.401 6.88983 100.816 6.88983ZM98.1366 25.2954C94.0707 25.2954 92.6791 23.3068 92.6791 19.191C92.6791 15.0752 94.0652 13.0866 98.1366 13.0866C102.067 13.0866 103.455 14.8904 103.455 19.191C103.455 23.4916 102.065 25.2954 98.1347 25.2954H98.1366Z" fill="black"/>
<path d="M126.381 21.041L125.179 25.3415L123.838 21.041L119.352 7.63H111.259L118.752 30.1051H123.793L122.592 33.709H112.647V39.9981H119.306C126.566 39.9981 128.971 36.8073 130.821 30.7954L138.174 7.62723H130.636L126.381 21.041Z" fill="black"/>
<path d="M139.639 8.94125H141.659V13.9062H143.33V8.94125H145.34V7.62908H139.639V8.94125Z" fill="black"/>
<path d="M151.277 7.62908L149.993 12.1884L148.719 7.62908H145.859V13.9062H147.52V8.66773L149.04 13.9062H150.9L152.41 8.70561V13.9062H154.07V7.62908H151.277Z" fill="black"/>
</svg>
